<svg width="241" height="240" viewBox="0 0 241 240" fill="none" xmlns="http://www.w3.org/2000/svg">
<path fill-rule="evenodd" clip-rule="evenodd" d="M240.063 0H0.0634155V240H240.063V0ZM55.4779 131.853C57.306 131.209 58.6947 130.359 59.6439 129.304V118.793H49.1849V123.029H53.474V127.002C52.6888 127.717 51.4935 128.074 49.888 128.074C48.013 128.074 46.6361 127.435 45.7572 126.158C44.89 124.869 44.4564 122.947 44.4564 120.392V118.845C44.4681 116.408 44.8958 114.533 45.7396 113.22C46.5833 111.908 47.7786 111.252 49.3255 111.252C50.6146 111.252 51.6107 111.556 52.3138 112.166C53.0169 112.775 53.474 113.795 53.6849 115.224H59.6263C59.3333 112.33 58.3021 110.156 56.5326 108.703C54.7747 107.238 52.3021 106.506 49.1146 106.506C46.9349 106.506 45.013 107.015 43.349 108.035C41.6966 109.043 40.4251 110.49 39.5345 112.377C38.6439 114.252 38.1986 116.449 38.1986 118.969L38.2161 121.183C38.3568 124.84 39.429 127.693 41.4329 129.744C43.4369 131.795 46.1146 132.82 49.4661 132.82C51.6458 132.82 53.6497 132.498 55.4779 131.853ZM71.1997 123.433H74.5396L79.0572 132.469H85.6665V132.205L80.3228 121.886C81.8579 121.16 82.9829 120.211 83.6978 119.039C84.4243 117.867 84.7876 116.39 84.7876 114.609C84.7876 112.148 83.9322 110.244 82.2212 108.896C80.5103 107.549 78.1372 106.875 75.1021 106.875H65.0298V132.469H71.1997V123.433ZM75.1021 118.67H71.1997V111.638H75.1021C76.2622 111.638 77.1411 111.955 77.7388 112.588C78.3365 113.209 78.6353 114.07 78.6353 115.172C78.6353 116.273 78.3365 117.135 77.7388 117.756C77.1529 118.365 76.274 118.67 75.1021 118.67ZM96.3962 127.687H104.851L106.345 132.469H112.972L103.515 106.875H97.7146L88.3279 132.469H94.9197L96.3962 127.687ZM103.375 122.924H97.8728L100.615 114.047L103.375 122.924ZM122.823 132.469V123.785H126.761C129.878 123.785 132.327 123.041 134.108 121.552C135.901 120.052 136.798 118.054 136.798 115.558C136.798 113.871 136.382 112.365 135.55 111.041C134.729 109.705 133.563 108.679 132.052 107.965C130.552 107.238 128.823 106.875 126.866 106.875H116.653V132.469H122.823ZM126.866 119.021H122.823V111.638H126.936C128.05 111.65 128.929 112.013 129.573 112.728C130.218 113.443 130.54 114.398 130.54 115.594C130.54 116.683 130.224 117.527 129.591 118.125C128.97 118.722 128.061 119.021 126.866 119.021ZM157.16 132.469H163.295V106.875H157.16V117.035H148.072V106.875H141.902V132.469H148.072V121.781H157.16V132.469ZM169.437 132.469H175.589V106.875H169.437V132.469ZM200.944 128.531C201.823 127.16 202.303 125.584 202.385 123.802H196.251C196.204 125.256 195.805 126.316 195.055 126.984C194.305 127.652 193.221 127.986 191.803 127.986C190.127 127.986 188.944 127.4 188.252 126.228C187.573 125.056 187.233 123.105 187.233 120.375V118.564C187.268 116.045 187.643 114.211 188.358 113.062C189.073 111.914 190.198 111.34 191.733 111.34C193.245 111.34 194.37 111.679 195.108 112.359C195.846 113.039 196.239 114.158 196.286 115.717H202.438C202.18 112.845 201.108 110.595 199.221 108.967C197.335 107.326 194.838 106.506 191.733 106.506C189.577 106.506 187.678 107.021 186.038 108.052C184.397 109.072 183.137 110.525 182.258 112.412C181.391 114.287 180.958 116.478 180.958 118.986V120.252C180.958 124.248 181.924 127.342 183.858 129.533C185.792 131.724 188.44 132.82 191.803 132.82C193.842 132.82 195.653 132.445 197.235 131.695C198.829 130.945 200.065 129.89 200.944 128.531Z" fill="white"/>
</svg>
