<svg width="240" height="240" viewBox="0 0 240 240" fill="none" xmlns="http://www.w3.org/2000/svg">
<path fill-rule="evenodd" clip-rule="evenodd" d="M240 0.000488281H0V240H240V0.000488281ZM10.5973 132.469H16.7496V106.875H10.5973V132.469ZM38.0789 132.469H44.2137V106.875H38.0613V122.801L29.0086 106.875H22.8387V132.469H29.0086V116.543L38.0789 132.469ZM49.916 106.875V132.469H58.3359C60.5508 132.457 62.5547 131.93 64.3477 130.887C66.1523 129.832 67.5469 128.379 68.5312 126.528C69.5273 124.664 70.0254 122.561 70.0254 120.217V119.039C70.0137 116.719 69.498 114.627 68.4785 112.764C67.4707 110.889 66.0645 109.442 64.2598 108.422C62.4551 107.391 60.4219 106.875 58.1602 106.875H49.916ZM56.0859 127.723V111.639H58.1602C59.9766 111.639 61.3594 112.266 62.3086 113.52C63.2578 114.774 63.7324 116.637 63.7324 119.11V120.217C63.7324 122.701 63.2578 124.576 62.3086 125.842C61.3594 127.096 60 127.723 58.2305 127.723H56.0859ZM95.0637 123.627V106.875H88.8938V123.592C88.8938 125.174 88.5656 126.317 87.9094 127.02C87.2531 127.723 86.2863 128.074 85.009 128.074C82.4777 128.074 81.177 126.674 81.1066 123.873V106.875H74.9016V123.75C74.9367 126.563 75.8508 128.778 77.6438 130.395C79.4367 132.012 81.8918 132.821 85.009 132.821C87.0715 132.821 88.8586 132.457 90.3703 131.731C91.882 131.004 93.0422 129.949 93.8508 128.567C94.6594 127.172 95.0637 125.526 95.0637 123.627ZM112.965 123.557C113.61 124.061 113.932 124.764 113.932 125.666C113.932 126.463 113.633 127.084 113.036 127.53C112.45 127.963 111.647 128.18 110.627 128.18C109.034 128.18 107.879 127.858 107.164 127.213C106.461 126.557 106.11 125.543 106.11 124.172H99.9223C99.9223 125.86 100.344 127.354 101.188 128.655C102.043 129.944 103.309 130.963 104.985 131.713C106.672 132.451 108.553 132.821 110.627 132.821C113.569 132.821 115.883 132.182 117.571 130.905C119.258 129.627 120.102 127.869 120.102 125.631C120.102 122.83 118.719 120.633 115.954 119.039C114.817 118.383 113.364 117.774 111.594 117.211C109.825 116.637 108.588 116.086 107.885 115.559C107.182 115.02 106.83 114.422 106.83 113.766C106.83 113.016 107.147 112.401 107.78 111.92C108.424 111.428 109.297 111.182 110.399 111.182C111.489 111.182 112.35 111.469 112.983 112.043C113.627 112.617 113.95 113.426 113.95 114.469H120.102C120.102 112.91 119.698 111.528 118.889 110.321C118.08 109.102 116.944 108.164 115.479 107.508C114.026 106.852 112.379 106.524 110.539 106.524C108.653 106.524 106.954 106.828 105.442 107.438C103.93 108.035 102.758 108.879 101.926 109.969C101.106 111.047 100.696 112.295 100.696 113.713C100.696 116.561 102.354 118.799 105.67 120.428C106.69 120.932 108.002 121.453 109.608 121.992C111.213 122.531 112.332 123.053 112.965 123.557ZM137.476 111.639H145.158V106.875H123.765V111.639H131.306V132.469H137.476V111.639ZM155.747 123.434H159.087L163.604 132.469H170.214V132.205L164.87 121.887C166.405 121.16 167.53 120.211 168.245 119.039C168.971 117.867 169.335 116.391 169.335 114.61C169.335 112.149 168.479 110.244 166.768 108.897C165.057 107.549 162.684 106.875 159.649 106.875H149.577V132.469H155.747V123.434ZM159.649 118.67H155.747V111.639H159.649C160.809 111.639 161.688 111.955 162.286 112.588C162.884 113.209 163.182 114.071 163.182 115.172C163.182 116.274 162.884 117.135 162.286 117.756C161.7 118.365 160.821 118.67 159.649 118.67ZM175.283 132.469H181.436V106.875H175.283V132.469ZM193.923 127.688H202.378L203.872 132.469H210.499L201.042 106.875H195.241L185.855 132.469H192.446L193.923 127.688ZM200.902 122.924H195.4L198.142 114.047L200.902 122.924ZM231.09 127.723H220.35V106.875H214.18V132.469H231.09V127.723Z" fill="white"/>
</svg>
