<svg width="241" height="240" viewBox="0 0 241 240" fill="none" xmlns="http://www.w3.org/2000/svg">
<path fill-rule="evenodd" clip-rule="evenodd" d="M240.021 0H0.0211182V240H240.021V0ZM117.662 123.627V106.875H111.492V123.592C111.492 125.174 111.164 126.316 110.508 127.019C109.852 127.722 108.885 128.074 107.607 128.074C105.076 128.074 103.775 126.674 103.705 123.873V106.875H97.5001V123.75C97.5352 126.562 98.4493 128.777 100.242 130.394C102.035 132.011 104.49 132.82 107.607 132.82C109.67 132.82 111.457 132.457 112.969 131.73C114.481 131.004 115.641 129.949 116.449 128.566C117.258 127.172 117.662 125.525 117.662 123.627ZM137.058 106.875L132.874 115.383L128.691 106.875H121.659L128.796 119.566L121.466 132.469H128.568L132.874 123.802L137.181 132.469H144.3L136.952 119.566L144.107 106.875H137.058Z" fill="white"/>
</svg>
