<svg width="241" height="240" viewBox="0 0 241 240" fill="none" xmlns="http://www.w3.org/2000/svg">
<path fill-rule="evenodd" clip-rule="evenodd" d="M240.042 0H0.0422363V240H240.042V0ZM76.8388 124.681L71.1259 106.875H63.0224V132.469H69.1923V126.492L68.5946 114.24L74.7997 132.469H78.8778L85.0653 114.258L84.4677 126.492V132.469H90.6552V106.875H82.5341L76.8388 124.681ZM102.563 121.623H112.266V117.035H102.563V111.638H114.059V106.875H96.3927V132.469H114.024V127.722H102.563V121.623ZM118.337 106.875V132.469H126.757C128.972 132.457 130.976 131.929 132.769 130.886C134.574 129.832 135.968 128.379 136.952 126.527C137.949 124.664 138.447 122.56 138.447 120.217V119.039C138.435 116.719 137.919 114.627 136.9 112.763C135.892 110.888 134.486 109.441 132.681 108.422C130.876 107.39 128.843 106.875 126.581 106.875H118.337ZM124.507 127.722V111.638H126.581C128.398 111.638 129.781 112.265 130.73 113.519C131.679 114.773 132.154 116.636 132.154 119.109V120.217C132.154 122.701 131.679 124.576 130.73 125.842C129.781 127.095 128.421 127.722 126.652 127.722H124.507ZM143.833 132.469H149.985V106.875H143.833V132.469ZM162.472 127.687H170.927L172.422 132.469H179.049L169.592 106.875H163.791L154.404 132.469H160.996L162.472 127.687ZM169.451 122.924H163.949L166.691 114.047L169.451 122.924Z" fill="white"/>
</svg>
